HIERARCHY
ROOT hips
{
	OFFSET -0.003675 0.299928 -0.021708
	CHANNELS 6 Xposition Yposition Zposition Xrotation Yrotation Zrotation
	JOINT LowerBack
	{
		OFFSET 0.000919 0.177588 0.009275
		CHANNELS 3 Xrotation Yrotation Zrotation
		JOINT spine
		{
			OFFSET 0.000919 0.177588 0.009275
			CHANNELS 3 Xrotation Yrotation Zrotation
			JOINT chest
			{
				OFFSET 0.000456 0.100015 0.004638
				CHANNELS 3 Xrotation Yrotation Zrotation
				JOINT neck
				{
					OFFSET 0.000456 0.100015 0.004638
					CHANNELS 3 Xrotation Yrotation Zrotation
					JOINT head
					{
						OFFSET 0.000924 0.155147 0.009274
						CHANNELS 6 Xposition Yposition Zposition Xrotation Yrotation Zrotation
						End Site
						{
							OFFSET 0.000000 0.153400 0.000000
						}
					}
				}
				JOINT shoulder.L
				{
					OFFSET 0.019937 0.078966 0.057518
					CHANNELS 6 Xposition Yposition Zposition Yrotation Xrotation Zrotation
					JOINT upper_arm.L
					{
						OFFSET 0.177024 -0.020465 -0.095062
						CHANNELS 6 Xposition Yposition Zposition Xrotation Yrotation Zrotation
						JOINT forearm.L
						{
							OFFSET 0.247100 -0.135500 -0.061800
							CHANNELS 3 Xrotation Yrotation Zrotation
							JOINT hand.L
							{
								OFFSET 0.217000 -0.143000 0.039300
								CHANNELS 3 Xrotation Yrotation Zrotation
								JOINT palm.01.L
								{
									OFFSET 0.021770 -0.038291 0.012954
									CHANNELS 6 Xposition Yposition Zposition Yrotation Xrotation Zrotation
									JOINT f_index.01.L
									{
										OFFSET 0.053215 -0.044137 0.008236
										CHANNELS 3 Xrotation Yrotation Zrotation
										JOINT f_index.02.L
										{
											OFFSET 0.036108 -0.024723 -0.010656
											CHANNELS 3 Xrotation Yrotation Zrotation
											JOINT f_index.03.L
											{
												OFFSET 0.021342 -0.014948 -0.010846
												CHANNELS 3 Xrotation Yrotation Zrotation
												End Site
												{
													OFFSET 0.015600 -0.009860 -0.013421
												}
											}
										}
									}
									JOINT thumb.01.L
									{
										OFFSET -0.009090 -0.002348 -0.024223
										CHANNELS 6 Xposition Yposition Zposition Xrotation Yrotation Zrotation
										JOINT thumb.02.L
										{
											OFFSET 0.019713 -0.035076 -0.011120
											CHANNELS 3 Xrotation Yrotation Zrotation
											JOINT thumb.03.L
											{
												OFFSET 0.024877 -0.021748 -0.005176
												CHANNELS 3 Xrotation Yrotation Zrotation
												End Site
												{
													OFFSET 0.016125 -0.013029 -0.001569
												}
											}
										}
									}
								}
								JOINT palm.02.L
								{
									OFFSET 0.032823 -0.025104 0.012281
									CHANNELS 6 Xposition Yposition Zposition Yrotation Xrotation Zrotation
									JOINT f_middle.01.L
									{
										OFFSET 0.055723 -0.038469 0.008037
										CHANNELS 3 Xrotation Yrotation Zrotation
										JOINT f_middle.02.L
										{
											OFFSET 0.038167 -0.027473 -0.015582
											CHANNELS 3 Xrotation Yrotation Zrotation
											JOINT f_middle.03.L
											{
												OFFSET 0.021707 -0.016587 -0.017037
												CHANNELS 3 Xrotation Yrotation Zrotation
												End Site
												{
													OFFSET 0.014112 -0.010584 -0.014294
												}
											}
										}
									}
								}
								JOINT palm.03.L
								{
									OFFSET 0.039230 -0.011402 0.008390
									CHANNELS 6 Xposition Yposition Zposition Yrotation Xrotation Zrotation
									JOINT f_ring.01.L
									{
										OFFSET 0.061796 -0.031470 0.007910
										CHANNELS 3 Xrotation Yrotation Zrotation
										JOINT f_ring.02.L
										{
											OFFSET 0.033092 -0.023401 -0.019127
											CHANNELS 3 Xrotation Yrotation Zrotation
											JOINT f_ring.03.L
											{
												OFFSET 0.021392 -0.015362 -0.017824
												CHANNELS 3 Xrotation Yrotation Zrotation
												End Site
												{
													OFFSET 0.008670 -0.007297 -0.014686
												}
											}
										}
									}
								}
								JOINT palm.04.L
								{
									OFFSET 0.043417 0.002450 0.002889
									CHANNELS 6 Xposition Yposition Zposition Yrotation Xrotation Zrotation
									JOINT f_pinky.01.L
									{
										OFFSET 0.069986 -0.026156 0.003627
										CHANNELS 3 Xrotation Yrotation Zrotation
										JOINT f_pinky.02.L
										{
											OFFSET 0.018520 -0.012813 -0.016429
											CHANNELS 3 Xrotation Yrotation Zrotation
											JOINT f_pinky.03.L
											{
												OFFSET 0.013822 -0.009796 -0.014947
												CHANNELS 3 Xrotation Yrotation Zrotation
												End Site
												{
													OFFSET 0.007238 -0.006103 -0.011657
												}
											}
										}
									}
								}
							}
						}
					}
				}
				JOINT shoulder.R
				{
					OFFSET -0.016662 0.078957 0.057696
					CHANNELS 6 Xposition Yposition Zposition Yrotation Xrotation Zrotation
					JOINT upper_arm.R
					{
						OFFSET -0.176972 -0.020537 -0.095144
						CHANNELS 6 Xposition Yposition Zposition Xrotation Yrotation Zrotation
						JOINT forearm.R
						{
							OFFSET -0.247100 -0.135500 -0.061800
							CHANNELS 3 Xrotation Yrotation Zrotation
							JOINT hand.R
							{
								OFFSET -0.217000 -0.143000 0.039300
								CHANNELS 3 Xrotation Yrotation Zrotation
								JOINT palm.01.R
								{
									OFFSET -0.021773 -0.038278 0.012988
									CHANNELS 6 Xposition Yposition Zposition Yrotation Xrotation Zrotation
									JOINT f_index.01.R
									{
										OFFSET -0.053212 -0.044139 0.008249
										CHANNELS 3 Xrotation Yrotation Zrotation
										JOINT f_index.02.R
										{
											OFFSET -0.036049 -0.024835 -0.010634
											CHANNELS 3 Xrotation Yrotation Zrotation
											JOINT f_index.03.R
											{
												OFFSET -0.021371 -0.014881 -0.010866
												CHANNELS 3 Xrotation Yrotation Zrotation
												End Site
												{
													OFFSET -0.015584 -0.009883 -0.013422
												}
											}
										}
									}
									JOINT thumb.01.R
									{
										OFFSET 0.009113 -0.002381 -0.024211
										CHANNELS 6 Xposition Yposition Zposition Xrotation Yrotation Zrotation
										JOINT thumb.02.R
										{
											OFFSET -0.019694 -0.035097 -0.011088
											CHANNELS 3 Xrotation Yrotation Zrotation
											JOINT thumb.03.R
											{
												OFFSET -0.024867 -0.021762 -0.005168
												CHANNELS 3 Xrotation Yrotation Zrotation
												End Site
												{
													OFFSET -0.016120 -0.013036 -0.001565
												}
											}
										}
									}
								}
								JOINT palm.02.R
								{
									OFFSET -0.032828 -0.025095 0.012286
									CHANNELS 6 Xposition Yposition Zposition Yrotation Xrotation Zrotation
									JOINT f_middle.01.R
									{
										OFFSET -0.055721 -0.038472 0.008040
										CHANNELS 3 Xrotation Yrotation Zrotation
										JOINT f_middle.02.R
										{
											OFFSET -0.038101 -0.027593 -0.015557
											CHANNELS 3 Xrotation Yrotation Zrotation
											JOINT f_middle.03.R
											{
												OFFSET -0.021730 -0.016530 -0.017054
												CHANNELS 3 Xrotation Yrotation Zrotation
												End Site
												{
													OFFSET -0.014096 -0.010608 -0.014293
												}
											}
										}
									}
								}
								JOINT palm.03.R
								{
									OFFSET -0.039192 -0.011488 0.008390
									CHANNELS 6 Xposition Yposition Zposition Yrotation Xrotation Zrotation
									JOINT f_ring.01.R
									{
										OFFSET -0.061839 -0.031387 0.007876
										CHANNELS 3 Xrotation Yrotation Zrotation
										JOINT f_ring.02.R
										{
											OFFSET -0.033068 -0.023437 -0.019125
											CHANNELS 3 Xrotation Yrotation Zrotation
											JOINT f_ring.03.R
											{
												OFFSET -0.021371 -0.015393 -0.017822
												CHANNELS 3 Xrotation Yrotation Zrotation
												End Site
												{
													OFFSET -0.008654 -0.007321 -0.014684
												}
											}
										}
									}
								}
								JOINT palm.04.R
								{
									OFFSET -0.043421 0.002443 0.002845
									CHANNELS 6 Xposition Yposition Zposition Yrotation Xrotation Zrotation
									JOINT f_pinky.01.R
									{
										OFFSET -0.069983 -0.026169 0.003599
										CHANNELS 3 Xrotation Yrotation Zrotation
										JOINT f_pinky.02.R
										{
											OFFSET -0.018501 -0.012842 -0.016428
											CHANNELS 3 Xrotation Yrotation Zrotation
											JOINT f_pinky.03.R
											{
												OFFSET -0.013806 -0.009821 -0.014946
												CHANNELS 3 Xrotation Yrotation Zrotation
												End Site
												{
													OFFSET -0.007226 -0.006121 -0.011655
												}
											}
										}
									}
								}
							}
						}
					}
				}
			}
		}
	}
	JOINT pelvis.L
	{
		OFFSET 0.000000 0.000000 0.000000
		CHANNELS 6 Xposition Yposition Zposition Xrotation Yrotation Zrotation
		JOINT thigh.L
		{
			OFFSET 0.101675 0.001054 -0.000000
			CHANNELS 3 Xrotation Yrotation Zrotation
			JOINT shin.L
			{
				OFFSET 0.000000 -0.534800 0.041000
				CHANNELS 3 Xrotation Yrotation Zrotation
				JOINT foot.L
				{
					OFFSET 0.000000 -0.452000 -0.044800
					CHANNELS 3 Xrotation Yrotation Zrotation
					JOINT toe.L
					{
						OFFSET -0.000000 -0.068500 0.109600
						CHANNELS 3 Xrotation Yrotation Zrotation
						End Site
						{
							OFFSET -0.000000 0.000000 0.067200
						}
					}
				}
				JOINT heel.L
				{
					OFFSET 0.000000 -0.452000 -0.044800
					CHANNELS 3 Xrotation Yrotation Zrotation
					JOINT heel.02.L
					{
						OFFSET -0.038000 -0.085200 0.016200
						CHANNELS 6 Xposition Yposition Zposition Xrotation Yrotation Zrotation
						End Site
						{
							OFFSET 0.080000 -0.000000 0.000000
						}
					}
				}
			}
		}
	}
	JOINT pelvis.R
	{
		OFFSET 0.000000 0.000000 0.000000
		CHANNELS 6 Xposition Yposition Zposition Xrotation Yrotation Zrotation
		JOINT thigh.R
		{
			OFFSET -0.094325 0.001054 0.000000
			CHANNELS 3 Xrotation Yrotation Zrotation
			JOINT shin.R
			{
				OFFSET 0.000000 -0.534800 0.041000
				CHANNELS 3 Xrotation Yrotation Zrotation
				JOINT foot.R
				{
					OFFSET 0.000000 -0.452000 -0.044800
					CHANNELS 3 Xrotation Yrotation Zrotation
					JOINT toe.R
					{
						OFFSET -0.000000 -0.068500 0.109600
						CHANNELS 3 Xrotation Yrotation Zrotation
						End Site
						{
							OFFSET -0.000000 0.000000 0.067200
						}
					}
				}
				JOINT heel.R
				{
					OFFSET 0.000000 -0.452000 -0.044800
					CHANNELS 3 Xrotation Yrotation Zrotation
					JOINT heel.02.R
					{
						OFFSET 0.038000 -0.085200 0.016200
						CHANNELS 6 Xposition Yposition Zposition Xrotation Yrotation Zrotation
						End Site
						{
							OFFSET -0.080000 0.000000 -0.000000
						}
					}
				}
			}
		}
	}
}
MOTION
Frames: 4
Frame Time: 0.041667
0.002169 0.272004 -0.025287 46.434703 -43.079280 43.626447 -0.000002 0.000000 -0.000000 -0.000002 0.000005 -0.000001 0.000001 -0.000000 0.000000 -0.000002 0.000002 -0.000002 0.000924 0.155148 0.009274 22.655903 -0.030211 7.195113 0.019937 0.078966 0.057518 -35.015716 3.943881 38.267648 0.177024 -0.020465 -0.095062 -61.708184 34.362019 -67.114272 -13.656778 -12.445898 -16.903530 -0.000001 -0.000000 0.000003 0.021770 -0.038291 0.012954 0.000003 0.000003 -0.000002 -0.000002 -0.000002 0.000003 -0.000003 -0.000000 0.000007 0.000003 -0.000000 -0.000002 -0.009090 -0.002348 -0.024224 0.000001 0.000002 0.000001 0.000003 -0.000003 -0.000001 0.000000 -0.000001 0.000001 0.032823 -0.025104 0.012281 0.000000 0.000000 0.000004 -0.000001 0.000001 -0.000003 -0.000002 -0.000003 0.000001 0.000002 -0.000006 0.000004 0.039230 -0.011402 0.008390 0.000003 -0.000000 0.000004 0.000000 0.000000 -0.000000 0.000001 0.000003 -0.000001 -0.000000 0.000000 -0.000000 0.043417 0.002450 0.002889 0.000000 -0.000000 -0.000003 -0.000001 -0.000003 -0.000002 -0.000001 -0.000003 0.000003 0.000000 -0.000003 0.000000 -0.016662 0.078956 0.057696 -21.574626 4.065857 -23.598626 -0.176972 -0.020537 -0.095144 -33.424521 -10.923713 57.555040 -49.038436 14.949204 45.065124 -0.000001 0.000004 -0.000001 -0.021773 -0.038278 0.012988 -0.000002 -0.000005 0.000000 -0.000001 0.000001 0.000001 0.000001 -0.000004 -0.000003 0.000001 0.000003 0.000001 0.009114 -0.002381 -0.024211 0.000002 -0.000002 -0.000001 0.000002 0.000001 0.000000 0.000001 -0.000006 -0.000003 -0.032828 -0.025095 0.012286 0.000002 -0.000001 -0.000003 0.000001 0.000006 0.000003 -0.000002 0.000004 -0.000002 -0.000001 0.000000 -0.000000 -0.039192 -0.011488 0.008390 -0.000000 -0.000001 0.000001 0.000002 0.000005 -0.000003 0.000002 -0.000005 -0.000002 -0.000001 -0.000003 -0.000002 -0.043421 0.002443 0.002845 -0.000002 -0.000001 -0.000002 -0.000003 -0.000001 -0.000001 0.000000 -0.000001 -0.000003 0.000001 0.000001 -0.000000 -0.000000 0.000000 -0.000000 -2.030450 0.743999 -9.375923 -39.081301 0.529707 9.455673 45.915530 0.583994 -5.900679 -0.000002 0.000000 0.000002 0.000000 -0.000006 -0.000002 0.000000 0.000001 -0.000001 -0.038000 -0.085200 0.016200 -0.000002 -0.000002 0.000001 -0.000000 0.000000 -0.000000 -1.960686 0.733221 -8.142640 -62.835247 0.069986 -3.124132 39.411394 2.846250 -30.106026 0.000003 -0.000001 -0.000004 0.000002 -0.000003 -0.000002 0.000007 -0.000002 0.000001 0.038000 -0.085200 0.016200 -0.000003 -0.000000 0.000001 
0.002266 0.272074 -0.026261 47.241055 -41.681489 44.148314 -0.000002 -0.000001 0.000000 0.000002 -0.000001 0.000001 0.000003 -0.000000 -0.000000 0.000001 0.000000 -0.000002 0.000924 0.155148 0.009274 22.245901 -0.030241 7.578528 0.019937 0.078966 0.057518 -35.150640 3.982741 38.235635 0.177024 -0.020465 -0.095062 -61.126341 33.104930 -66.454080 -14.926161 -13.173622 -17.695328 -0.000001 -0.000003 -0.000002 0.021770 -0.038291 0.012954 -0.000001 0.000003 -0.000001 -0.000003 -0.000004 -0.000001 -0.000003 0.000001 0.000007 -0.000003 0.000001 -0.000000 -0.009090 -0.002348 -0.024224 -0.000000 -0.000001 -0.000001 -0.000001 -0.000001 -0.000001 -0.000001 0.000002 0.000006 0.032823 -0.025104 0.012281 -0.000001 0.000002 0.000009 -0.000000 -0.000003 -0.000005 -0.000003 0.000003 0.000001 0.000002 0.000005 0.000001 0.039230 -0.011402 0.008390 0.000000 0.000002 0.000004 0.000002 0.000002 -0.000000 -0.000002 0.000004 -0.000004 -0.000004 -0.000002 0.000003 0.043417 0.002450 0.002889 0.000001 0.000002 -0.000000 -0.000001 -0.000003 0.000001 0.000002 0.000003 0.000003 0.000001 -0.000003 -0.000003 -0.016662 0.078957 0.057696 -21.747155 4.246608 -23.958307 -0.176972 -0.020537 -0.095144 -33.485812 -10.729095 57.274159 -46.585049 15.087997 44.168200 0.000002 0.000001 0.000002 -0.021773 -0.038278 0.012988 -0.000001 -0.000003 -0.000002 -0.000003 0.000006 -0.000001 0.000001 0.000003 -0.000004 -0.000001 0.000004 0.000003 0.009114 -0.002381 -0.024212 -0.000000 0.000001 -0.000001 0.000001 0.000003 0.000004 -0.000002 -0.000002 -0.000003 -0.032828 -0.025095 0.012286 0.000003 -0.000001 0.000001 -0.000003 0.000006 -0.000001 0.000002 0.000000 0.000002 -0.000001 -0.000001 -0.000006 -0.039192 -0.011488 0.008390 -0.000001 0.000001 0.000003 0.000001 -0.000001 -0.000002 0.000002 -0.000001 0.000002 -0.000003 0.000004 -0.000001 -0.043421 0.002443 0.002844 0.000001 -0.000001 0.000002 -0.000002 -0.000001 0.000001 -0.000002 -0.000005 0.000000 -0.000002 -0.000004 0.000002 0.000000 0.000000 -0.000000 -2.024180 0.703982 -8.940697 -41.316979 0.556290 9.917320 47.405717 0.733659 -7.421191 0.000002 0.000002 -0.000001 -0.000003 0.000000 0.000001 -0.000002 0.000004 -0.000003 -0.038000 -0.085200 0.016200 -0.000002 0.000001 0.000004 0.000000 0.000000 0.000000 -1.956027 0.693978 -7.707346 -65.202379 0.088534 -2.958744 42.626131 2.728157 -28.734958 0.000000 -0.000002 0.000001 -0.000003 -0.000000 0.000003 0.000009 -0.000002 0.000000 0.038000 -0.085200 0.016200 -0.000002 0.000004 -0.000001 
0.001509 0.271264 -0.025936 46.706176 -41.922622 44.662464 -0.000000 0.000003 -0.000001 -0.000002 0.000001 -0.000000 0.000003 -0.000001 0.000001 -0.000002 0.000001 -0.000002 0.000924 0.155148 0.009274 22.220882 -0.030860 8.231340 0.019937 0.078966 0.057518 -35.300514 4.206929 38.960646 0.177025 -0.020465 -0.095062 -61.983065 34.074342 -66.694161 -13.817877 -12.529536 -16.965333 -0.000002 0.000003 0.000002 0.021770 -0.038291 0.012954 0.000000 0.000003 0.000001 0.000000 0.000001 0.000003 -0.000001 -0.000000 0.000006 0.000002 0.000004 -0.000000 -0.009090 -0.002348 -0.024223 -0.000000 0.000000 0.000003 -0.000001 -0.000003 0.000001 0.000005 0.000001 0.000003 0.032823 -0.025104 0.012281 -0.000001 0.000002 0.000002 0.000003 0.000003 -0.000007 -0.000002 -0.000003 0.000007 0.000002 -0.000003 0.000003 0.039230 -0.011402 0.008390 0.000000 0.000001 0.000004 0.000001 -0.000000 -0.000002 0.000000 0.000003 -0.000001 0.000002 0.000003 0.000001 0.043417 0.002450 0.002889 -0.000003 0.000003 -0.000002 0.000001 -0.000004 0.000001 -0.000001 0.000000 0.000001 -0.000002 -0.000005 -0.000001 -0.016662 0.078957 0.057696 -21.985416 4.253693 -23.899230 -0.176972 -0.020537 -0.095144 -34.231453 -11.156261 57.815045 -46.157087 15.915358 42.868152 -0.000001 0.000004 -0.000002 -0.021773 -0.038278 0.012988 0.000002 -0.000002 -0.000003 0.000001 0.000000 0.000002 0.000000 -0.000002 -0.000003 -0.000000 0.000004 0.000005 0.009114 -0.002381 -0.024212 0.000002 -0.000005 0.000003 -0.000001 0.000000 0.000002 -0.000001 0.000000 -0.000006 -0.032828 -0.025095 0.012286 0.000003 -0.000001 -0.000001 0.000001 0.000000 0.000001 0.000002 -0.000003 0.000001 -0.000002 0.000003 -0.000001 -0.039192 -0.011488 0.008390 0.000001 -0.000001 -0.000000 0.000000 0.000004 -0.000002 0.000002 -0.000001 0.000002 -0.000002 0.000002 -0.000004 -0.043421 0.002443 0.002845 0.000002 -0.000001 0.000000 -0.000002 0.000000 0.000001 -0.000001 -0.000004 -0.000002 -0.000000 0.000001 -0.000000 -0.000000 0.000000 -0.000000 -2.035062 0.741807 -9.343562 -39.114745 0.570928 10.010190 45.647923 0.577407 -5.833834 0.000002 0.000001 -0.000003 -0.000004 0.000003 0.000002 0.000000 0.000003 -0.000002 -0.038000 -0.085200 0.016200 0.000001 -0.000004 0.000003 -0.000000 0.000000 -0.000000 -1.965248 0.731068 -8.110268 -63.407057 0.105308 -2.689122 42.630892 2.853244 -30.187824 -0.000005 -0.000004 0.000003 0.000003 -0.000002 -0.000001 0.000000 -0.000004 0.000001 0.038000 -0.085200 0.016200 -0.000003 -0.000002 0.000001 
0.001545 0.269808 -0.026638 47.204394 -40.699670 45.637623 -0.000002 -0.000001 -0.000000 -0.000001 -0.000003 0.000001 0.000003 -0.000004 0.000001 0.000003 -0.000003 0.000002 0.000924 0.155147 0.009274 21.452767 -0.029529 6.399395 0.019937 0.078966 0.057518 -35.163282 4.723864 40.904289 0.177024 -0.020465 -0.095062 -67.116062 36.353614 -64.776742 -10.212822 -9.777798 -16.900840 -0.000003 -0.000003 -0.000003 0.021770 -0.038291 0.012954 0.000001 -0.000000 -0.000002 0.000000 -0.000002 0.000005 -0.000000 0.000005 0.000009 0.000002 0.000001 -0.000002 -0.009090 -0.002348 -0.024223 0.000003 -0.000000 -0.000001 0.000005 0.000003 -0.000000 -0.000001 0.000001 -0.000001 0.032823 -0.025104 0.012281 -0.000002 -0.000002 0.000009 0.000002 0.000002 -0.000007 -0.000000 0.000003 0.000005 -0.000001 -0.000002 0.000004 0.039230 -0.011402 0.008390 -0.000003 -0.000002 0.000004 0.000000 0.000004 0.000001 0.000001 0.000003 0.000001 0.000001 -0.000002 0.000001 0.043417 0.002450 0.002889 -0.000004 -0.000002 -0.000002 -0.000003 -0.000008 -0.000000 0.000004 0.000000 -0.000003 0.000001 0.000000 -0.000002 -0.016662 0.078957 0.057696 -20.417901 3.815141 -24.346250 -0.176972 -0.020537 -0.095144 -38.970713 -12.068260 57.996673 -40.947817 17.542607 38.311726 -0.000001 0.000004 0.000003 -0.021773 -0.038278 0.012988 0.000001 0.000000 -0.000003 -0.000003 0.000001 0.000001 -0.000000 -0.000002 -0.000005 -0.000001 0.000000 0.000004 0.009114 -0.002381 -0.024211 -0.000002 -0.000003 0.000002 -0.000000 -0.000004 0.000002 -0.000001 0.000002 -0.000003 -0.032828 -0.025095 0.012286 -0.000001 0.000002 -0.000004 0.000001 0.000002 0.000004 0.000001 -0.000006 -0.000001 -0.000001 0.000003 -0.000004 -0.039192 -0.011488 0.008390 0.000001 0.000004 -0.000000 -0.000002 0.000008 -0.000003 -0.000001 -0.000002 -0.000000 -0.000001 -0.000005 -0.000001 -0.043421 0.002443 0.002845 -0.000000 0.000001 0.000000 -0.000001 0.000004 0.000001 0.000001 0.000003 0.000002 0.000001 0.000002 0.000001 0.000000 0.000000 -0.000000 -2.062551 0.781913 -9.738991 -38.754025 0.573302 10.036190 44.570615 0.617154 -6.237184 0.000005 -0.000000 -0.000002 0.000003 -0.000001 -0.000002 0.000005 -0.000002 0.000001 -0.038000 -0.085200 0.016200 0.000002 0.000002 -0.000001 -0.000000 0.000000 -0.000000 -1.990534 0.770309 -8.505803 -65.806325 0.091181 -2.952255 44.875695 2.660998 -27.963102 0.000003 0.000001 0.000004 -0.000001 -0.000000 -0.000001 0.000005 0.000001 0.000004 0.038000 -0.085200 0.016200 -0.000001 -0.000002 0.000002 
